<?xml version="1.0" standalone="no"?>
<!DOCTYPE svg PUBLIC "-//W3C//DTD SVG 20010904//EN"
 "http://www.w3.org/TR/2001/REC-SVG-20010904/DTD/svg10.dtd">
<svg version="1.0" xmlns="http://www.w3.org/2000/svg"
 width="400.000000pt" height="400.000000pt" viewBox="0 0 400.000000 400.000000"
 preserveAspectRatio="xMidYMid meet">
<metadata>
Created by potrace 1.11, written by Peter Selinger 2001-2013
</metadata>
<g transform="translate(0.000000,400.000000) scale(0.100000,-0.100000)"
fill="#000000" stroke="none">
<path d="M1780 3987 c-244 -67 -411 -357 -413 -717 0 -117 6 -175 30 -269 68
-275 240 -457 444 -469 169 -10 313 77 413 248 243 418 105 1069 -254 1195
-60 21 -165 27 -220 12z m154 -289 c52 -16 134 -96 165 -162 61 -132 74 -336
29 -476 -32 -102 -106 -197 -174 -226 -143 -60 -289 47 -345 251 -53 194 -14
418 95 541 66 75 140 98 230 72z"/>
<path d="M450 3972 c-6 -2 -10 -60 -10 -147 l0 -142 141 -1 c77 0 143 -3 146
-5 3 -3 5 -258 4 -566 0 -571 -1 -569 34 -561 6 1 47 2 92 2 52 0 83 5 85 12
2 6 3 258 3 560 -1 425 2 549 11 553 7 2 72 5 146 6 l133 2 0 143 c0 89 -3
142 -10 143 -28 3 -766 4 -775 1z"/>
<path d="M2574 3971 c-2 -2 -4 -323 -4 -711 l0 -707 99 -1 c86 -1 99 1 103 16
2 9 3 214 3 454 0 241 2 434 6 430 4 -4 62 -134 130 -289 67 -156 126 -283
129 -283 6 0 155 325 165 360 1 3 9 21 18 40 9 19 32 71 51 115 l35 80 1 -462
0 -463 103 3 102 2 2 710 2 710 -110 0 c-83 -1 -112 -4 -119 -15 -5 -8 -62
-141 -126 -297 -65 -156 -121 -280 -124 -276 -4 5 -46 105 -95 223 -48 118
-98 238 -110 265 -12 28 -25 60 -29 73 -4 12 -14 23 -22 23 -43 4 -206 3 -210
0z"/>
<path d="M1825 2452 c-61 -38 -77 -153 -35 -249 21 -48 21 -49 -21 -73 -8 -5
-27 -31 -43 -59 -63 -117 -16 -276 89 -295 48 -9 112 21 144 69 13 19 27 35
30 35 4 0 22 -25 40 -55 27 -44 36 -53 47 -44 20 16 18 21 -26 88 -40 60 -41
62 -26 94 26 53 55 145 49 151 -17 17 -31 -1 -52 -64 -14 -39 -28 -73 -31 -75
-4 -3 -32 34 -63 82 l-56 87 22 15 c101 69 118 221 32 289 -34 27 -61 28 -100
4z m80 -38 c44 -29 53 -116 18 -175 -16 -27 -70 -65 -79 -56 -3 3 -16 31 -29
62 -19 47 -21 64 -13 98 12 53 33 77 76 86 1 1 14 -6 27 -15z m-6 -388 c34
-52 61 -101 61 -109 0 -8 -18 -33 -40 -56 -32 -33 -47 -41 -76 -41 -48 0 -70
14 -93 58 -27 53 -23 137 9 183 27 38 50 58 66 59 7 0 39 -42 73 -94z"/>
<path d="M1523 1749 c-116 -21 -207 -105 -286 -264 -37 -74 -81 -204 -91 -269
-4 -21 -8 -41 -10 -45 -20 -32 -28 -418 -12 -541 34 -269 154 -522 287 -606
35 -22 49 -24 152 -24 111 0 115 1 162 32 121 80 237 311 270 533 3 22 9 65
14 95 16 99 6 413 -17 525 -78 383 -260 602 -469 564z m99 -358 c57 -22 115
-103 152 -213 24 -72 30 -96 41 -174 7 -44 7 -238 1 -269 -2 -11 -7 -42 -10
-69 -8 -57 -38 -152 -66 -206 -28 -56 -65 -96 -107 -115 -177 -84 -324 162
-324 538 1 250 83 461 200 510 35 15 71 14 113 -2z"/>
<path d="M2385 1727 c-79 -38 -129 -104 -174 -231 -38 -110 -47 -350 -17 -479
34 -147 95 -222 253 -310 156 -88 183 -123 180 -233 -4 -109 -47 -159 -133
-156 -67 3 -152 68 -217 166 l-26 40 -15 -35 c-8 -19 -33 -79 -55 -133 l-41
-99 25 -42 c38 -66 123 -153 179 -186 48 -27 58 -29 158 -29 105 0 107 0 150
33 76 58 140 193 156 332 13 109 7 285 -12 362 -37 151 -114 238 -294 333
-113 59 -153 129 -136 235 13 81 46 117 109 117 49 0 94 -27 161 -98 l60 -64
48 140 49 140 -25 38 c-69 102 -170 168 -273 177 -50 5 -68 2 -110 -18z"/>
<path d="M280 1554 l0 -171 168 0 c92 0 177 -3 189 -7 70 -22 84 -246 19 -311
-23 -22 -30 -24 -172 -23 -82 0 -161 -1 -176 -1 l-28 -1 0 -170 0 -170 58 0
58 0 162 -325 c89 -179 166 -325 170 -325 8 1 112 211 112 228 0 6 -45 101
-101 213 -97 196 -104 218 -67 219 15 0 81 65 104 102 76 120 113 345 89 533
-21 162 -91 306 -173 357 -34 21 -48 22 -224 23 l-188 0 0 -171z"/>
<path d="M3002 885 c0 -462 1 -849 3 -860 4 -20 11 -20 322 -18 175 0 320 2
323 2 4 1 6 295 1 326 -1 6 -84 10 -231 9 l-230 -1 0 178 c0 136 3 179 13 180
6 0 93 2 192 3 99 2 185 3 190 4 7 1 11 61 10 167 l0 165 -202 0 -203 0 0 174
0 174 183 0 c100 0 203 1 230 1 l47 1 0 165 c0 91 -3 166 -7 166 -5 1 -150 2
-324 3 l-316 1 -1 -840z"/>
</g>
</svg>
